<?xml version="1.0" standalone="no"?>
<!DOCTYPE svg PUBLIC "-//W3C//DTD SVG 20010904//EN"
 "http://www.w3.org/TR/2001/REC-SVG-20010904/DTD/svg10.dtd">
<svg version="1.0" xmlns="http://www.w3.org/2000/svg"
 width="701.000000pt" height="701.000000pt" viewBox="0 0 701.000000 701.000000"
 preserveAspectRatio="xMidYMid meet">
<metadata>
Created by potrace 1.11, written by Peter Selinger 2001-2013
</metadata>
<g transform="translate(0.000000,701.000000) scale(0.100000,-0.100000)"
fill="#000000" stroke="none">
<path d="M4687 6158 c-380 -57 -706 -191 -879 -362 -20 -20 -39 -36 -42 -36
-3 0 -36 21 -73 47 -79 54 -221 122 -313 151 -147 45 -346 65 -485 48 -318
-39 -660 -182 -925 -389 -65 -51 -170 -155 -170 -170 0 -4 -26 6 -58 22 -143
72 -311 85 -477 36 -174 -51 -427 -193 -554 -311 -200 -184 -396 -474 -441
-650 -31 -123 -22 -237 26 -345 l26 -57 -53 -69 c-192 -250 -199 -563 -20
-840 50 -77 155 -172 240 -217 l69 -36 -29 -68 c-41 -99 -76 -232 -93 -352
-16 -116 -15 -355 2 -430 6 -25 13 -58 16 -73 34 -189 212 -411 426 -529 126
-69 297 -110 470 -112 69 0 143 2 165 6 225 39 481 141 709 282 59 37 109 66
110 64 2 -2 10 -41 20 -86 50 -242 130 -389 299 -554 85 -84 188 -143 302
-174 84 -22 297 -26 405 -8 213 37 415 137 633 311 38 30 69 53 71 51 122
-174 249 -272 406 -313 50 -13 91 -16 180 -12 180 8 292 47 469 165 139 91
244 202 384 406 11 16 15 17 22 6 5 -8 4 -11 -3 -7 -16 11 -15 -336 2 -368 7
-13 16 -22 19 -18 4 3 7 2 7 -3 0 -6 11 -10 25 -10 14 0 25 4 25 8 0 4 3 7 8
6 10 -4 191 180 184 186 -3 4 0 6 6 6 14 0 72 58 72 72 0 6 3 8 6 5 4 -3 15 5
26 18 20 26 44 25 34 -1 -3 -8 -2 -14 3 -14 8 0 24 -38 22 -52 -1 -5 4 -8 10
-8 6 0 9 -7 5 -15 -3 -8 -1 -15 5 -15 6 0 9 -7 5 -15 -3 -8 -1 -15 4 -15 5 0
12 -10 16 -22 3 -12 13 -36 20 -55 8 -18 14 -35 14 -38 0 -3 11 -25 25 -50 13
-25 20 -43 16 -40 -5 2 5 -22 21 -55 22 -45 34 -60 51 -61 35 -2 51 2 59 14 5
8 8 7 8 -3 0 -9 3 -11 8 -5 12 17 52 36 62 30 6 -4 10 -1 10 5 0 6 5 8 10 5 6
-3 10 -1 10 5 0 7 6 10 14 7 8 -3 17 1 20 9 3 9 10 13 15 10 12 -8 41 38 41
63 0 11 -4 23 -10 26 -5 3 -10 17 -10 31 0 13 -4 24 -10 24 -5 0 -10 9 -10 19
0 11 -4 22 -9 25 -4 3 -14 26 -21 51 -7 25 -16 45 -19 45 -4 0 -13 20 -20 45
-7 25 -17 45 -23 45 -5 0 -7 4 -4 8 2 4 -5 28 -16 52 -12 25 -22 47 -23 50 -1
3 -5 13 -8 23 -15 39 -16 47 -4 48 43 4 54 3 75 -3 15 -5 22 -3 22 5 0 8 4 7
10 -3 8 -12 10 -12 10 -1 0 10 3 11 14 2 9 -7 17 -8 20 -2 7 10 24 10 43 -2 6
-4 14 -3 18 2 3 7 15 7 29 1 13 -5 27 -6 30 -2 10 10 36 11 36 1 0 -5 11 -4
25 1 14 5 25 6 25 1 0 -5 11 -4 24 2 13 7 22 15 20 19 -3 5 0 8 6 8 7 0 10 14
8 37 -2 28 -13 47 -47 80 -25 23 -49 43 -53 43 -4 0 -8 4 -8 9 0 13 -81 91
-93 91 -6 0 -8 3 -5 6 8 7 -45 62 -54 57 -5 -2 -8 2 -8 9 0 15 -35 48 -50 48
-6 0 -10 4 -10 8 0 14 -41 57 -51 55 -5 -2 -9 2 -9 8 0 6 -16 26 -35 43 -19
18 -32 36 -28 40 5 4 3 6 -2 5 -6 -2 -29 15 -51 37 l-42 40 44 57 c84 112 142
267 148 400 l3 71 64 48 c146 110 277 265 339 401 49 109 99 264 121 380 32
161 32 475 1 588 -28 104 -74 209 -129 299 -55 89 -210 247 -333 339 l-85 64
3 96 c8 241 -57 406 -261 658 -133 165 -377 346 -557 412 -206 75 -527 105
-763 69z"/>
</g>
</svg>
